<?xml version="1.0" standalone="no"?>
<!DOCTYPE svg PUBLIC "-//W3C//DTD SVG 20010904//EN"
 "http://www.w3.org/TR/2001/REC-SVG-20010904/DTD/svg10.dtd">
<svg version="1.0" xmlns="http://www.w3.org/2000/svg"
 width="490.000000pt" height="490.000000pt" viewBox="0 0 490.000000 490.000000"
 preserveAspectRatio="xMidYMid meet">

<g transform="translate(0.000000,490.000000) scale(0.100000,-0.100000)"
fill="#000000" stroke="none">
<path fill="yellow" d="M1465 4885 c-474 -77 -863 -312 -1136 -685 -232 -316 -341 -676 -326
-1075 15 -424 177 -807 471 -1113 592 -617 1531 -705 2230 -209 l69 49 203
-203 204 -204 -25 -49 c-29 -57 -31 -101 -10 -154 11 -26 199 -220 618 -639
l602 -603 45 0 45 0 222 222 c173 173 223 229 223 248 0 20 -127 152 -612 637
-426 425 -624 617 -650 628 -53 22 -98 19 -153 -11 l-49 -25 -203 203 -203
203 56 75 c417 561 441 1350 58 1938 -258 396 -644 657 -1114 753 -130 27
-438 34 -565 14z m515 -370 c454 -99 829 -418 989 -845 64 -170 84 -286 84
-480 0 -243 -34 -384 -143 -605 -73 -147 -134 -231 -260 -356 -185 -184 -408
-302 -678 -361 -140 -30 -386 -30 -530 1 -260 55 -472 166 -660 345 -121 116
-209 234 -277 371 -97 196 -134 343 -142 560 -25 670 446 1254 1107 1375 128
24 389 21 510 -5z"/>
</g>
</svg>
